<svg width="18" height="18" viewBox="0 0 18 18" fill="none" xmlns="http://www.w3.org/2000/svg">
<g clip-path="url(#clip0_148_1175)">
<path d="M11.6719 7.39687V6.59787C11.6719 6.31662 11.5594 6.03537 11.3625 5.83849C11.1656 5.64162 10.8844 5.52912 10.6031 5.52912H9.53438V2.57344C9.53438 2.27812 9.29531 2.03906 9 2.03906C8.70469 2.03906 8.46563 2.27812 8.46563 2.57344V5.52912H7.39687C7.11562 5.52912 6.83438 5.64162 6.6375 5.83849C6.44063 6.03537 6.32812 6.31662 6.32812 6.59787V7.38281C6.32812 7.66406 6.44063 7.94531 6.6375 8.14219C6.83438 8.33906 7.11562 8.45156 7.39687 8.45156H8.46563V15.4125C8.46563 15.7078 8.70469 15.9469 9 15.9469C9.29531 15.9469 9.53438 15.7078 9.53438 15.4125V8.46563H10.6031C10.8844 8.46563 11.1656 8.35312 11.3625 8.15625C11.5594 7.94531 11.6719 7.67812 11.6719 7.39687Z" fill="#272A2F" fill-opacity="0.5"/>
<path d="M5.77988 10.3526H4.71113V2.57344C4.71113 2.27812 4.47207 2.03906 4.17676 2.03906C3.88145 2.03906 3.64238 2.27812 3.64238 2.57344V10.3526H2.57363C2.29238 10.3526 2.01113 10.4651 1.81426 10.6619C1.61738 10.8588 1.50488 11.1401 1.50488 11.4213V12.2063C1.50488 12.4875 1.61738 12.7687 1.81426 12.9656C2.01113 13.1625 2.29238 13.275 2.57363 13.275H3.64238V15.4125C3.64238 15.7078 3.88145 15.9469 4.17676 15.9469C4.47207 15.9469 4.71113 15.7078 4.71113 15.4125V13.2891H5.77988C6.06113 13.2891 6.34238 13.1766 6.53926 12.9797C6.73613 12.7828 6.84863 12.5016 6.84863 12.2203V11.4213C6.84863 11.1401 6.73613 10.8588 6.53926 10.6619C6.34238 10.4651 6.07519 10.3526 5.77988 10.3526Z" fill="#272A2F" fill-opacity="0.5"/>
<path d="M15.4269 10.3526H14.3581V2.57344C14.3581 2.27812 14.119 2.03906 13.8237 2.03906C13.5284 2.03906 13.2894 2.27812 13.2894 2.57344V10.3526H12.2206C11.9394 10.3526 11.4612 10.6619 11.4612 10.6619C11.4612 10.6619 11.1519 11.1401 11.1519 11.4213V12.2063C11.1519 12.4875 11.2644 12.7687 11.4612 12.9656C11.6581 13.1625 11.9394 13.275 12.2206 13.275H13.2894V15.4125C13.2894 15.7078 13.5284 15.9469 13.8237 15.9469C14.119 15.9469 14.3581 15.7078 14.3581 15.4125V13.2891H15.4269C15.7081 13.2891 15.9894 13.1766 16.1862 12.9797C16.3831 12.7828 16.4956 12.5016 16.4956 12.2203V11.4213C16.4956 11.1401 16.3831 10.8588 16.1862 10.6619C15.9894 10.4651 15.7081 10.3526 15.4269 10.3526Z" fill="#272A2F" fill-opacity="0.5"/>
</g>
<defs>
<clipPath id="clip0_148_1175">
<rect width="18" height="18" fill="white"/>
</clipPath>
</defs>
</svg>
