<svg width="16" height="16" viewBox="0 0 16 16" fill="none" xmlns="http://www.w3.org/2000/svg">
<rect width="16" height="16" fill="white"/>
<path d="M12 5C12 3.93913 11.5786 2.92172 10.8284 2.17157C10.0783 1.42143 9.06087 1 8 1C6.93913 1 5.92172 1.42143 5.17157 2.17157C4.42143 2.92172 4 3.93913 4 5C4 9.66667 2 11 2 11H14C14 11 12 9.66667 12 5Z" stroke="#272A2F" stroke-opacity="0.5" stroke-width="1.5" stroke-linecap="round" stroke-linejoin="round"/>
<path d="M9.15335 13.6666C9.03614 13.8687 8.86791 14.0364 8.6655 14.153C8.46309 14.2696 8.2336 14.3309 8.00001 14.3309C7.76643 14.3309 7.53694 14.2696 7.33453 14.153C7.13212 14.0364 6.96389 13.8687 6.84668 13.6666" stroke="#272A2F" stroke-opacity="0.5" stroke-width="1.5" stroke-linecap="round" stroke-linejoin="round"/>
</svg>
